<?xml version="1.0" encoding="utf-8"?>
<svg id="master-artboard" viewBox="0 0 1400 980" version="1.1" xmlns="http://www.w3.org/2000/svg" x="0px" y="0px" style="enable-background:new 0 0 1400 980;" width="1400px" height="980px"><g transform="matrix(8.283764884754598, 0, 0, 8.283764884754598, 113.46360860272148, -0.0000034681886518228566)"><rect id="ee-background" x="0" y="0" width="141.61106872558594" height="118.30369567871094" style="fill: white; fill-opacity: 0; pointer-events: none;"/><path d="M 254.82798767089844 293.53851318359375 L 255.37342834472656 362.4457702636719 L 365.3705139160156 362.6275939941406 L 361.55242919921875 358.9913330078125 L 259.91876220703125 358.627685546875 L 258.64605712890625 296.447509765625 L 262.4641418457031 296.62933349609375 L 262.2823181152344 292.4476318359375 L 254.82798767089844 293.53851318359375 Z" style="fill: rgb(254, 252, 255); fill-opacity: 1; stroke: rgb(0, 0, 0); stroke-opacity: 1; stroke-width: 0; paint-order: fill;" transform="matrix(1, 0, 0, 1, -241.75820763256365, -265.35912649605615)"/><path d="M 358.8252258300781 292.083984375 L 365.3705139160156 292.26580810546875 L 365.91595458984375 361.90032958984375 L 361.1888122558594 362.4457702636719 L 361.7342529296875 358.80950927734375 L 361.7342529296875 296.26568603515625 L 359.1888732910156 296.0838928222656 L 358.8252258300781 355.35504150390625 L 354.2799072265625 355.536865234375 L 354.6435241699219 286.0841369628906 C 354.6435241699219 286.0841369628906 319.91717529296875 292.9930725097656 313.0082702636719 301.5382995605469 L 312.8264465332031 356.62774658203125 L 309.37200927734375 357.3550109863281 L 308.8265686035156 302.083740234375 C 308.8265686035156 302.083740234375 280.82733154296875 285.9023132324219 266.46405029296875 286.0841369628906 L 266.10040283203125 351.7187805175781 L 308.8265686035156 357.3550109863281 L 307.19024658203125 360.62762451171875 L 290.4634094238281 358.2640686035156 C 290.4634094238281 358.2640686035156 271.191162109375 354.26416015625 263.00958251953125 355.9004821777344 L 262.6459655761719 281.35699462890625 C 262.6459655761719 281.35699462890625 297.7359313964844 283.7205505371094 310.8265075683594 295.1748046875 C 310.8265075683594 295.1748046875 316.2809143066406 295.1748046875 320.0989990234375 293.17486572265625 C 323.9170837402344 291.1749267578125 351.7345275878906 278.26617431640625 358.0979919433594 281.35699462890625 L 358.8252258300781 292.083984375 Z" style="fill: rgb(254, 252, 255); fill-opacity: 1; stroke: rgb(0, 0, 0); stroke-opacity: 1; stroke-width: 0; paint-order: stroke;" transform="matrix(1, 0, 0, 1, -241.75820763256365, -265.35912649605615)"/><path d="M 314.4627685546875 356.2641296386719 C 314.4627685546875 356.2641296386719 348.4619140625 339.9009094238281 353.9162902832031 341.5372314453125 L 356.1615295410156 343.782470703125 C 356.1615295410156 343.782470703125 328.46240234375 352.2641906738281 326.2806396484375 354.26416015625 C 324.098876953125 356.2641296386719 350.0981750488281 349.9006652832031 355.18896484375 352.446044921875 L 355.18896484375 356.12298583984375 C 355.18896484375 356.12298583984375 333.371337890625 355.1732482910156 329.9169006347656 358.2640686035156 C 326.46246337890625 361.3548889160156 324.6443176269531 361.173095703125 324.6443176269531 360.99127197265625 C 324.6443176269531 360.8094482421875 309.190185546875 360.8094482421875 309.190185546875 360.8094482421875 L 295.1905517578125 355.536865234375 C 295.1905517578125 355.536865234375 277.73651123046875 344.6280517578125 265.9186096191406 345.1734924316406 L 265.9186096191406 341.9517517089844 C 265.9186096191406 341.9517517089844 279.9182434082031 342.2644958496094 308.6447448730469 355.536865234375 L 314.3941955566406 355.536865234375 L 314.64459228515625 357.53680419921875 C 314.64459228515625 357.53680419921875 309.1901550292969 357.53680419921875 309.5538024902344 357.53680419921875 C 309.9174499511719 357.53680419921875 314.2809753417969 356.8095703125 314.4627685546875 356.2641296386719 Z" style="fill: rgb(254, 252, 255); fill-opacity: 1; stroke: rgb(0, 0, 0); stroke-opacity: 1; stroke-width: 0; paint-order: stroke;" transform="matrix(1, 0, 0, 1, -241.75820763256365, -265.35912649605615)"/><path d="M 274.4638366699219 300.81103515625 C 274.4638366699219 300.81103515625 295.1905517578125 304.6291198730469 299.5540771484375 308.265380859375 C 303.9176025390625 311.9016418457031 305.0084533691406 306.2654724121094 299.9176940917969 304.2655029296875 C 294.8269348144531 302.2655334472656 281.91815185546875 297.1747741699219 276.2819519042969 297.1747741699219 C 270.645751953125 297.1747741699219 274.6456298828125 300.99285888671875 274.4638366699219 300.81103515625 Z" style="fill: rgb(254, 252, 255); fill-opacity: 1; stroke: rgb(0, 0, 0); stroke-opacity: 1; stroke-width: 0; paint-order: stroke;" transform="matrix(1, 0, 0, 1, -241.75820763256365, -265.35912649605615)"/><path d="M 274.4638366699219 300.81103515625 C 274.4638366699219 300.81103515625 295.1905517578125 304.6291198730469 299.5540771484375 308.265380859375 C 303.9176025390625 311.9016418457031 305.0084533691406 306.2654724121094 299.9176940917969 304.2655029296875 C 294.8269348144531 302.2655334472656 281.91815185546875 297.1747741699219 276.2819519042969 297.1747741699219 C 270.645751953125 297.1747741699219 274.6456298828125 300.99285888671875 274.4638366699219 300.81103515625 Z" style="fill: rgb(254, 252, 255); fill-opacity: 1; stroke: rgb(0, 0, 0); stroke-opacity: 1; stroke-width: 0; paint-order: stroke;" transform="matrix(1, 0, 0, 1, -242.48282290842303, -255.50231020424707)"/><path d="M 274.4638366699219 300.81103515625 C 274.4638366699219 300.81103515625 295.1905517578125 304.6291198730469 299.5540771484375 308.265380859375 C 303.9176025390625 311.9016418457031 305.0084533691406 306.2654724121094 299.9176940917969 304.2655029296875 C 294.8269348144531 302.2655334472656 281.91815185546875 297.1747741699219 276.2819519042969 297.1747741699219 C 270.645751953125 297.1747741699219 274.6456298828125 300.99285888671875 274.4638366699219 300.81103515625 Z" style="fill: rgb(254, 252, 255); fill-opacity: 1; stroke: rgb(0, 0, 0); stroke-opacity: 1; stroke-width: 0; paint-order: stroke;" transform="matrix(1, 0, 0, 1, -239.93743546154292, -246.22982637856353)"/><path d="M 274.4638366699219 300.81103515625 C 274.4638366699219 300.81103515625 295.1905517578125 304.6291198730469 299.5540771484375 308.265380859375 C 303.9176025390625 311.9016418457031 305.0084533691406 306.2654724121094 299.9176940917969 304.2655029296875 C 294.8269348144531 302.2655334472656 281.91815185546875 297.1747741699219 276.2819519042969 297.1747741699219 C 270.645751953125 297.1747741699219 274.6456298828125 300.99285888671875 274.4638366699219 300.81103515625 Z" style="fill: rgb(254, 252, 255); fill-opacity: 1; stroke: rgb(0, 0, 0); stroke-opacity: 1; stroke-width: 0; paint-order: stroke;" transform="matrix(1, 0, 0, 1, -239.39199478771502, -235.86646501992095)"/><path d="M 274.4638366699219 300.81103515625 C 274.4638366699219 300.81103515625 295.1905517578125 304.6291198730469 299.5540771484375 308.265380859375 C 303.9176025390625 311.9016418457031 305.0084533691406 306.2654724121094 299.9176940917969 304.2655029296875 C 294.8269348144531 302.2655334472656 281.91815185546875 297.1747741699219 276.2819519042969 297.1747741699219 C 270.645751953125 297.1747741699219 274.6456298828125 300.99285888671875 274.4638366699219 300.81103515625 Z" style="fill: rgb(254, 252, 255); fill-opacity: 1; stroke: rgb(0, 0, 0); stroke-opacity: 1; stroke-width: 0; paint-order: stroke;" transform="matrix(-1, 0, 0, 1, 380.4375941023611, -264.41114513848174)"/><path d="M 274.4638366699219 300.81103515625 C 274.4638366699219 300.81103515625 295.1905517578125 304.6291198730469 299.5540771484375 308.265380859375 C 303.9176025390625 311.9016418457031 305.0084533691406 306.2654724121094 299.9176940917969 304.2655029296875 C 294.8269348144531 302.2655334472656 281.91815185546875 297.1747741699219 276.2819519042969 297.1747741699219 C 270.645751953125 297.1747741699219 274.6456298828125 300.99285888671875 274.4638366699219 300.81103515625 Z" style="fill: rgb(254, 252, 255); fill-opacity: 1; stroke: rgb(0, 0, 0); stroke-opacity: 1; stroke-width: 0; paint-order: stroke;" transform="matrix(-1, 0, 0, 1, 380.25583140704816, -254.59322779152734)"/><path d="M 274.4638366699219 300.81103515625 C 274.4638366699219 300.81103515625 295.1905517578125 304.6291198730469 299.5540771484375 308.265380859375 C 303.9176025390625 311.9016418457031 305.0084533691406 306.2654724121094 299.9176940917969 304.2655029296875 C 294.8269348144531 302.2655334472656 281.91815185546875 297.1747741699219 276.2819519042969 297.1747741699219 C 270.645751953125 297.1747741699219 274.6456298828125 300.99285888671875 274.4638366699219 300.81103515625 Z" style="fill: rgb(254, 252, 255); fill-opacity: 1; stroke: rgb(0, 0, 0); stroke-opacity: 1; stroke-width: 0; paint-order: stroke;" transform="matrix(-1, 0, 0, 1, 380.61941783282964, -244.95712130043853)"/><path d="M 274.4638366699219 300.81103515625 C 274.4638366699219 300.81103515625 295.1905517578125 304.6291198730469 299.5540771484375 308.265380859375 C 303.9176025390625 311.9016418457031 305.0084533691406 306.2654724121094 299.9176940917969 304.2655029296875 C 294.8269348144531 302.2655334472656 281.91815185546875 297.1747741699219 276.2819519042969 297.1747741699219 C 270.645751953125 297.1747741699219 274.6456298828125 300.99285888671875 274.4638366699219 300.81103515625 Z" style="fill: rgb(254, 252, 255); fill-opacity: 1; stroke: rgb(0, 0, 0); stroke-opacity: 1; stroke-width: 0; paint-order: stroke;" transform="matrix(-1, 0, 0, 1, 381.1648279890794, -235.8664497611319)"/></g></svg>