<?xml version="1.0" encoding="utf-8"?>
<svg id="master-artboard" viewBox="0 0 1400 980" version="1.1" xmlns="http://www.w3.org/2000/svg" x="0px" y="0px" style="enable-background:new 0 0 1400 980;" width="1400px" height="980px"><g transform="matrix(8.283764884754598, 0, 0, 8.283764884754598, 113.46360860272148, -0.0000034681886518228566)"><rect id="ee-background" x="0" y="0" width="141.61106872558594" height="118.30369567871094" style="fill: white; fill-opacity: 0; pointer-events: none;"/></g><g transform="matrix(7.752876669863973, 0, 0, 7.752876669863973, 205.13474909050962, -0.0000037773347685288172)"><rect id="rect-1" x="0" y="0" width="127.6597900390625" height="126.40469360351562" style="fill: white; fill-opacity: 0; pointer-events: none;"/><path d="M 327.666259765625 345.8883361816406 L 377.9996032714844 372.7216491699219 L 372.8329162597656 373.3883361816406 L 324.9996032714844 349.55499267578125 C 324.9996032714844 349.55499267578125 323.3329162597656 347.8883361816406 327.666259765625 345.8883361816406 Z" style="fill: rgb(247, 247, 247); fill-opacity: 1; stroke: rgb(0, 0, 0); stroke-opacity: 1; stroke-width: 0; paint-order: fill;" transform="matrix(0.9999999999999999, 0, 0, 0.9999999999999999, -314.38689477520927, -308.05114986179694)"/><path d="M 377.666259765625 321.3883361816406 L 326.166259765625 346.7216491699219 L 330.666259765625 349.05499267578125 L 377.666259765625 325.3883361816406 L 397.3329162597656 335.8883361816406 L 349.9996032714844 358.55499267578125 L 353.666259765625 360.8883361816406 L 400.666259765625 337.55499267578125 L 420.666259765625 347.3883361816406 L 373.8329162597656 370.3883361816406 L 376.9996032714844 372.8883361816406 L 426.9996032714844 348.55499267578125 C 426.9996032714844 348.55499267578125 428.4996032714844 347.2216796875 424.666259765625 345.3883361816406 C 420.8329162597656 343.55499267578125 377.9996032714844 321.3883361816406 377.666259765625 321.3883361816406 Z" style="fill: rgb(255, 255, 255); fill-opacity: 1; stroke: rgb(0, 0, 0); stroke-opacity: 1; stroke-width: 0; paint-order: fill;" transform="matrix(0.9999999999999999, 0, 0, 0.9999999999999999, -314.38689477520927, -308.05114986179694)"/><path d="M 372.3329162597656 425.05499267578125 L 372.666259765625 373.05499267578125 L 376.166259765625 372.8883361816406 L 376.3329162597656 425.3883361816406 L 423.166259765625 402.05499267578125 L 423.166259765625 349.3883361816406 L 426.9996032714844 348.2216491699219 L 426.8329162597656 403.05499267578125 C 426.8329162597656 403.05499267578125 427.1662292480469 404.7216491699219 424.3329162597656 405.7216491699219 C 421.4996032714844 406.7216491699219 375.166259765625 430.2216491699219 375.166259765625 430.2216491699219 L 324.666259765625 405.3883361816406 L 324.666259765625 348.55499267578125 L 328.8329162597656 350.55499267578125 L 327.8329162597656 403.05499267578125 L 372.3329162597656 425.05499267578125 Z" style="fill: rgb(255, 255, 255); fill-opacity: 1; stroke: rgb(0, 0, 0); stroke-opacity: 1; stroke-width: 0; paint-order: fill;" transform="matrix(0.9999999999999999, 0, 0, 0.9999999999999999, -314.38689477520927, -308.05114986179694)"/></g></svg>