<?xml version="1.0" encoding="utf-8"?>
<svg id="master-artboard" viewBox="0 0 172.1829071044922 163.7133026123047" version="1.1" xmlns="http://www.w3.org/2000/svg" x="0px" y="0px" style="enable-background:new 0 0 1400 980;" width="172.1829071044922px" height="163.7133026123047px"><rect id="ee-background" x="0" y="0" width="172.1829071044922" height="163.7133026123047" style="fill: white; fill-opacity: 0; pointer-events: none;"/><g transform="matrix(1.0222699642181396, 0, 0, 0.6882377862930298, -27.670762076540314, -460.6781383551945)"><g id="Layer_2_27_" transform="matrix(1, 0, 0, 1, 0, 0)">
	<g id="Layer_1-2_25_">
		<g>
			<path class="st0" d="M163,887H57V781h106V887z M63,881h94v-94H63V881z" style="fill: rgb(255, 255, 255);"/>
		</g>
	</g>
</g></g><g transform="matrix(0.13572050631046295, 0, 0, 0.23318856954574582, 22.37452600939673, -145.7703777350772)"><g id="g-1" transform="matrix(1, 0, 0, 1, 0, 0)">
	<g id="g-2">
		<g>
			<path class="st0" d="M 157.47422790527344 850.0147094726562 L 57 887 L 57 781 L 163 781 L 157.47422790527344 850.0147094726562 Z M 63 881 L 157 847.2308349609375 L 157 787 L 63 787 L 63 881 Z" style="fill: rgb(255, 255, 255); stroke: rgb(255, 255, 255); stroke-width: 16;"/>
		</g>
	</g>
</g></g><g transform="matrix(0.2811717391014099, -0.002100433688610792, 0.0031419617589563127, 0.42053431272506714, 50.90150354845923, -226.08264885324138)"><g id="g-3" transform="matrix(1, 0, 0, 1, 0, 0)">
	<g id="g-4">
		<g>
			<path class="st0" d="M163,887H57V781h106V887z M63,881h94v-94H63V881z" style="fill: rgb(255, 255, 255); stroke: rgb(255, 255, 255); stroke-width: 12;"/>
		</g>
	</g>
</g></g><g transform="matrix(1.387016773223877, 0, 0, 0.7664097547531128, -62.05168248669679, -810.0236888923039)"><g id="g-5" transform="matrix(1, 0, 0, 1, 0, 0)">
	<g id="g-6">
		<g>
			<path class="st0" d="M160.2,1162H49.8l55.2-96.6L160.2,1162z M60.2,1156h89.7l-44.8-78.5L60.2,1156z" style="fill: rgb(255, 255, 255);"/>
		</g>
	</g>
</g></g></svg>